<svg xmlns="http://www.w3.org/2000/svg" height="40px" viewBox="0 -960 960 960" width="40px" fill="#815CDF"><path d="M266.67-80q-27 0-46.84-19.83Q200-119.67 200-146.67v-666.66q0-27 19.83-46.84Q239.67-880 266.67-880h265q13.52 0 25.78 4.96Q569.7-870.09 579-861l161.33 160.67q9 9 14.34 21.35Q760-666.63 760-653v506.33q0 27-19.83 46.84Q720.33-80 693.33-80H266.67Zm180-733.33h-180v666.66h426.66v-422H562q-48.06 0-81.69-33.64-33.64-33.63-33.64-81.69v-129.33Zm66.66 0V-684q0 20.68 13.99 34.68 14 13.99 34.68 13.99h131.33V-653L531.67-813.33h-18.34ZM386.67-218.67q-14.17 0-23.75-9.61-9.59-9.62-9.59-23.84 0-14.21 9.59-23.71 9.58-9.5 23.75-9.5h104.66q14.17 0 23.75 9.61 9.59 9.62 9.59 23.84 0 14.21-9.59 23.71-9.58 9.5-23.75 9.5H386.67Zm0-146.66q-14.17 0-23.75-9.62-9.59-9.62-9.59-23.83 0-14.22 9.59-23.72 9.58-9.5 23.75-9.5h186.66q14.17 0 23.75 9.62 9.59 9.61 9.59 23.83 0 14.22-9.59 23.72-9.58 9.5-23.75 9.5H386.67Z"/></svg>