<svg xmlns="http://www.w3.org/2000/svg" height="40px" viewBox="0 -960 960 960" width="40px" fill="#815CDF"><path d="M480-60q-76-68.67-168.67-105.33Q218.67-202 120-202v-432.67q96.33 0 189 40.84Q401.67-553 480-478.67 558.33-553 651-593.83q92.67-40.84 189-40.84V-202q-99 0-191.5 36.67Q556-128.67 480-60Zm0-86q68.33-49.67 142.33-79.33 74-29.67 151-38V-562q-69.66 11.67-143.5 53.83Q556-466 480-392.67q-80.67-76-152.17-117.16Q256.33-551 186.67-562v298.67q77 8.33 151 38 74 29.66 142.33 79.33ZM371.33-653.33Q326-698.67 326-764t45.33-110.67Q416.67-920 482-920t110.67 45.33Q638-829.33 638-764t-45.33 110.67Q547.33-608 482-608t-110.67-45.33Zm173.84-47.5Q571.33-727 571.33-764t-26.16-63.17Q519-853.33 482-853.33t-63.17 26.16Q392.67-801 392.67-764t26.16 63.17Q445-674.67 482-674.67t63.17-26.16ZM482-764Zm-2 371.33Z"/></svg>